<svg width="33" height="34" viewBox="0 0 33 34" fill="none" xmlns="http://www.w3.org/2000/svg">
<g clip-path="url(#clip0_110_47)">
<rect x="0.484848" y="0.747437" width="32.3232" height="32.3232" rx="16.1616" fill="#E2E6EE"/>
<path d="M16.6465 24.4848C15.5833 23.5779 14.5978 22.5837 13.7004 21.5126C12.3536 19.904 10.7542 17.5084 10.7542 15.2256C10.753 12.8413 12.1888 10.6914 14.3915 9.77892C16.5942 8.86646 19.1297 9.37138 20.8148 11.058C21.923 12.1612 22.5437 13.6619 22.5388 15.2256C22.5388 17.5084 20.9394 19.904 19.5926 21.5126C18.6952 22.5837 17.7097 23.5779 16.6465 24.4848ZM16.6465 12.7003C15.7443 12.7003 14.9106 13.1816 14.4596 13.9629C14.0085 14.7442 14.0085 15.7069 14.4596 16.4882C14.9106 17.2695 15.7443 17.7508 16.6465 17.7508C18.0411 17.7508 19.1717 16.6202 19.1717 15.2256C19.1717 13.8309 18.0411 12.7003 16.6465 12.7003Z" fill="#79819A"/>
</g>
<defs>
<clipPath id="clip0_110_47">
<rect x="0.484848" y="0.747437" width="32.3232" height="32.3232" rx="16.1616" fill="white"/>
</clipPath>
</defs>
</svg>
