<svg width="25" height="25" viewBox="0 0 25 25" fill="none" xmlns="http://www.w3.org/2000/svg">
<g clip-path="url(#clip0_132_167)">
<rect x="0.303101" y="0.414169" width="24.2424" height="24.2424" fill="#E1E7FE"/>
<path d="M10.1926 17.9237C8.91601 17.9237 7.76509 17.1547 7.27647 15.9752C6.78784 14.7958 7.05773 13.4382 7.9603 12.5354L9.29995 11.1957L10.1926 12.0884L8.85361 13.4274C8.37511 13.9059 8.18824 14.6034 8.36338 15.257C8.53852 15.9106 9.04907 16.4212 9.70271 16.5963C10.3564 16.7715 11.0538 16.5846 11.5323 16.1061L12.8713 14.7671L13.764 15.6604L12.4249 16.9994C11.8341 17.5932 11.0303 17.926 10.1926 17.9237ZM10.639 15.2134L9.74629 14.3207L14.2103 9.85673L15.103 10.7494L10.6396 15.2128L10.639 15.2134ZM15.5499 13.8744L14.6566 12.9817L15.9957 11.6427C16.4807 11.1656 16.6725 10.4651 16.4983 9.80747C16.3241 9.14985 15.8106 8.63618 15.153 8.46181C14.4954 8.28744 13.7948 8.47915 13.3176 8.96405L11.978 10.3031L11.0853 9.41039L12.4249 8.07074C13.6592 6.84724 15.6503 6.8516 16.8792 8.0805C18.1081 9.3094 18.1125 11.3005 16.889 12.5348L15.5499 13.8738V13.8744Z" fill="#516CF7"/>
</g>
<defs>
<clipPath id="clip0_132_167">
<rect x="0.303101" y="0.414169" width="24.2424" height="24.2424" rx="12.1212" fill="white"/>
</clipPath>
</defs>
</svg>
