<svg width="26" height="25" viewBox="0 0 26 25" fill="none" xmlns="http://www.w3.org/2000/svg">
<g clip-path="url(#clip0_132_154)">
<rect x="0.767776" y="0.414169" width="24.2424" height="24.2424" fill="#E1E7FE"/>
<path d="M10.9603 18.8486C9.90923 18.8567 8.9677 18.1999 8.61247 17.2106C8.25723 16.2213 8.56584 15.1156 9.38203 14.4533C8.80312 13.9847 8.46677 13.2798 8.46677 12.535C8.46677 11.7903 8.80312 11.0853 9.38203 10.6168C8.56558 9.9547 8.25678 8.84889 8.61209 7.85958C8.96739 6.87027 9.90917 6.21359 10.9603 6.22214H14.8176C15.8688 6.21359 16.8106 6.87027 17.1659 7.85958C17.5212 8.84889 17.2124 9.9547 16.3959 10.6168C17.2121 11.2791 17.5207 12.3849 17.1655 13.3741C16.8102 14.3634 15.8687 15.0202 14.8176 15.012C14.3322 15.0126 13.8571 14.8713 13.4508 14.6054V16.3731C13.4449 17.7437 12.3309 18.8509 10.9603 18.8486ZM10.9464 15.0126C10.1987 15.0244 9.60091 15.6381 9.60875 16.3859C9.61659 17.1338 10.2271 17.7348 10.9749 17.7309C11.7228 17.727 12.327 17.1197 12.3271 16.3718V15.0126H10.9458H10.9464ZM14.8183 11.1761C14.0685 11.18 13.4635 11.7902 13.466 12.54C13.4686 13.2897 14.0777 13.8958 14.8275 13.8946C15.5773 13.8933 16.1844 13.2851 16.1844 12.5354C16.1816 11.7829 15.5701 11.1747 14.8176 11.1761H14.8183ZM10.9609 11.1761C10.4753 11.1735 10.0252 11.4302 9.7802 11.8495C9.53515 12.2687 9.53239 12.7868 9.77294 13.2087C10.0135 13.6305 10.4608 13.892 10.9464 13.8946H12.3271V11.1761H10.9609ZM13.4508 7.33965V10.0587H14.817C15.5478 10.0621 16.1507 9.48764 16.1825 8.75758V9.0322V8.69887C16.1794 7.94728 15.5692 7.33965 14.8176 7.33965H13.4508ZM10.9597 7.33965C10.4741 7.33965 10.0254 7.59872 9.78257 8.01926C9.53977 8.4398 9.53977 8.95793 9.78257 9.37848C10.0254 9.79902 10.4741 10.0581 10.9597 10.0581H12.3271V7.33965H10.9597Z" fill="#516CF7"/>
</g>
<defs>
<clipPath id="clip0_132_154">
<rect x="0.767776" y="0.414169" width="24.2424" height="24.2424" rx="12.1212" fill="white"/>
</clipPath>
</defs>
</svg>
