<svg width="33" height="33" viewBox="0 0 33 33" fill="none" xmlns="http://www.w3.org/2000/svg">
<g clip-path="url(#clip0_110_39)">
<rect x="0.484848" y="0.464615" width="32.3232" height="32.3232" rx="16.1616" fill="#E2E6EE"/>
<path d="M22.5366 23.3602C15.3551 23.3704 9.90476 17.8548 9.91244 10.7361C9.91244 10.2712 10.2893 9.89223 10.7542 9.89223H12.9759C13.393 9.89223 13.7474 10.1987 13.8086 10.6114C13.9555 11.6003 14.2434 12.5631 14.6637 13.4703L14.7502 13.657C14.8705 13.9166 14.7889 14.225 14.5561 14.3913C13.8681 14.8826 13.6051 15.8716 14.1411 16.6434C14.8138 17.6118 15.6616 18.4595 16.6298 19.1318C17.4015 19.6677 18.3904 19.4047 18.8817 18.7168C19.0481 18.4839 19.3567 18.4023 19.6165 18.5227L19.8023 18.6087C20.7096 19.029 21.6724 19.317 22.6614 19.4637C23.0741 19.525 23.3804 19.8793 23.3804 20.2965V22.5185C23.3804 22.9834 23.0027 23.3602 22.5378 23.3602L22.5366 23.3602Z" fill="#79819A"/>
</g>
<defs>
<clipPath id="clip0_110_39">
<rect x="0.484848" y="0.464615" width="32.3232" height="32.3232" rx="16.1616" fill="white"/>
</clipPath>
</defs>
</svg>
