<svg width="33" height="33" viewBox="0 0 33 33" fill="none" xmlns="http://www.w3.org/2000/svg">
<g clip-path="url(#clip0_110_31)">
<rect x="0.484848" y="0.181793" width="32.3232" height="32.3232" rx="16.1616" fill="#E2E6EE"/>
<path d="M13.6709 23.5278C11.9687 23.5278 10.4342 22.5024 9.78267 20.9299C9.13118 19.3573 9.49103 17.5472 10.6945 16.3434L12.4807 14.5572L13.6709 15.7474L11.8855 17.5328C11.2475 18.1708 10.9984 19.1007 11.2319 19.9722C11.4654 20.8437 12.1462 21.5245 13.0177 21.758C13.8892 21.9915 14.8191 21.7423 15.4571 21.1043L17.2424 19.319L18.4327 20.5101L16.6473 22.2954C15.8595 23.0871 14.7878 23.5308 13.6709 23.5278ZM14.266 19.9141L13.0758 18.7239L19.0278 12.7718L20.218 13.9621L14.2668 19.9133L14.266 19.9141ZM20.814 18.1287L19.6229 16.9385L21.4083 15.1532C22.0549 14.5171 22.3108 13.583 22.0785 12.7062C21.8462 11.8293 21.1615 11.1444 20.2847 10.912C19.4079 10.6795 18.4738 10.9351 17.8376 11.5816L16.0514 13.367L14.8611 12.1767L16.6473 10.3905C18.293 8.75919 20.9478 8.765 22.5863 10.4035C24.2249 12.0421 24.2307 14.6969 22.5993 16.3426L20.814 18.1279V18.1287Z" fill="#79819A"/>
</g>
<defs>
<clipPath id="clip0_110_31">
<rect x="0.484848" y="0.181793" width="32.3232" height="32.3232" rx="16.1616" fill="white"/>
</clipPath>
</defs>
</svg>
